<svg xmlns="http://www.w3.org/2000/svg" xmlns:xlink="http://www.w3.org/1999/xlink" width="40" zoomAndPan="magnify" viewBox="0 0 30 30.000001" height="40" preserveAspectRatio="xMidYMid meet" version="1.0"><defs><clipPath id="e9310ee22e"><path d="M 0.484375 6.070312 L 29.515625 6.070312 L 29.515625 22.765625 L 0.484375 22.765625 Z M 0.484375 6.070312 " clip-rule="nonzero"/></clipPath></defs><g clip-path="url(#e9310ee22e)"><path fill="#000000" d="M 26.917969 14.695312 C 27.164062 14.542969 27.355469 14.394531 27.390625 14.363281 C 27.472656 14.28125 26.925781 14.085938 26.53125 13.988281 C 26.191406 13.902344 24.898438 13.6875 23.621094 14.199219 L 23.34375 13.574219 C 23.949219 13.183594 24.519531 12.890625 24.96875 12.609375 C 26.382812 11.71875 26.046875 10.875 25.328125 9.8125 C 24.929688 9.21875 23.621094 7.777344 23.449219 7.652344 C 22.96875 7.179688 22.070312 6.398438 21.898438 6.28125 C 21.585938 6.070312 20.832031 6.386719 20.632812 6.515625 C 20.609375 6.53125 20.578125 6.550781 20.546875 6.570312 C 20.324219 6.703125 20.09375 6.84375 20.148438 7.03125 C 20.191406 7.191406 20.402344 7.253906 20.898438 7.253906 C 21.503906 7.253906 22.449219 7.90625 22.835938 8.359375 L 22.835938 8.355469 C 23.039062 8.617188 23.148438 8.859375 23.160156 8.976562 C 23.1875 9.289062 22.652344 9.730469 21.648438 9.800781 L 21.324219 9.078125 C 21.425781 8.96875 21.480469 8.847656 21.445312 8.738281 C 21.351562 8.472656 21.5625 8.203125 21.351562 8.054688 C 21.140625 7.90625 20.839844 7.816406 20.628906 7.964844 C 20.417969 8.113281 20.359375 8.171875 20.117188 8.171875 C 19.878906 8.171875 19.726562 8.171875 19.605469 8.324219 C 19.484375 8.472656 19.636719 8.621094 19.636719 8.621094 L 19.035156 8.949219 C 19.035156 8.949219 19.003906 9.335938 19.363281 9.214844 L 20.148438 8.917969 C 20.148438 8.917969 20.230469 9.316406 20.59375 9.359375 L 20.851562 9.933594 C 20.464844 10.050781 20.03125 10.242188 19.632812 10.433594 C 19.464844 10.160156 19.105469 9.667969 18.617188 9.433594 C 17.988281 9.128906 15.9375 8.0625 14.539062 8.984375 C 13.273438 9.816406 12.445312 10.59375 12.042969 11.101562 C 11.941406 11.0625 11.839844 11.035156 11.75 11.027344 C 11.324219 10.996094 11.140625 10.984375 10.21875 11.0625 C 8.6875 11.191406 8.007812 10.832031 7.734375 10.703125 C 7.710938 10.691406 7.683594 10.679688 7.65625 10.675781 C 7.582031 10.335938 7.453125 9.832031 7.203125 9.84375 C 6.875 9.859375 5.222656 9.972656 4.84375 9.890625 C 4.460938 9.808594 3.828125 9.5625 3.679688 9.566406 C 3.585938 9.570312 3.507812 9.667969 3.503906 9.765625 C 2.976562 9.542969 2.457031 9.3125 2.285156 9.3125 C 2.054688 9.3125 2.054688 9.507812 2.351562 9.589844 C 2.652344 9.671875 3.097656 10.699219 3.0625 10.800781 C 3.03125 10.898438 3.558594 11.273438 5.261719 11.761719 C 6.101562 12.003906 7.367188 12.597656 8.472656 13.15625 C 8.429688 13.484375 8.613281 14.445312 8.523438 14.484375 C 8.40625 14.535156 8.242188 14.535156 7.828125 14.28125 C 7.28125 13.949219 6.71875 13.914062 6.75 13.988281 C 6.75 13.988281 6.753906 14.042969 7.027344 14.296875 C 5.359375 13.632812 3.375 14.023438 2.105469 15.421875 C 0.484375 17.207031 0.636719 19.960938 2.4375 21.5625 C 3.277344 22.304688 4.328125 22.671875 5.375 22.671875 C 6.582031 22.671875 7.78125 22.1875 8.648438 21.230469 C 9.113281 20.71875 9.433594 20.125 9.609375 19.503906 C 10.125 19.683594 10.503906 19.816406 10.605469 19.855469 C 11.019531 20.019531 11.25 20.085938 11.613281 19.988281 C 11.976562 19.890625 11.976562 20.183594 11.976562 20.183594 L 13.167969 20.230469 C 13.167969 20.230469 13.398438 20.101562 13.480469 20.101562 C 13.566406 20.101562 13.714844 20.230469 13.714844 20.230469 C 13.714844 20.230469 16.226562 20.28125 16.492188 20.265625 C 16.757812 20.25 16.824219 20.070312 17.105469 20.035156 C 17.386719 20.003906 19.15625 20.3125 19.652344 20.363281 C 20.148438 20.410156 19.949219 19.96875 19.847656 19.839844 C 19.789062 19.761719 19.671875 19.4375 19.554688 19.082031 C 19.636719 19.101562 19.734375 18.953125 19.847656 18.507812 C 20.429688 16.199219 21.5625 14.890625 22.691406 14.03125 L 22.925781 14.558594 C 21.511719 15.476562 21.054688 16.996094 21.054688 16.996094 C 21.054688 16.996094 21.171875 17.03125 21.308594 17.054688 C 21.125 17.523438 21.023438 18.03125 21.023438 18.566406 C 21.023438 20.878906 22.925781 22.765625 25.269531 22.765625 C 27.609375 22.765625 29.515625 20.878906 29.515625 18.566406 C 29.515625 16.828125 28.445312 15.335938 26.917969 14.695312 Z M 7.4375 20.15625 C 6.417969 21.28125 4.664062 21.375 3.527344 20.367188 C 2.390625 19.355469 2.292969 17.621094 3.316406 16.496094 C 3.652344 16.128906 4.066406 15.871094 4.511719 15.726562 C 4.195312 16.132812 3.84375 16.613281 3.742188 16.832031 C 3.566406 17.207031 4.09375 17.523438 4.675781 17.765625 C 4.375 18.132812 4.414062 18.671875 4.773438 18.992188 C 5.144531 19.320312 5.714844 19.292969 6.050781 18.925781 C 6.179688 18.78125 6.25 18.613281 6.273438 18.4375 L 6.34375 18.367188 C 6.878906 18.554688 7.484375 18.765625 8.070312 18.96875 C 7.96875 19.398438 7.757812 19.808594 7.4375 20.15625 Z M 11.695312 16.113281 C 11.496094 16.015625 11.101562 15.605469 10.851562 15.441406 C 10.605469 15.277344 10.355469 15.191406 10.238281 15.140625 C 10.125 15.09375 10.160156 14.96875 10.457031 14.773438 C 10.652344 14.640625 10.640625 14.425781 10.539062 14.253906 C 10.636719 14.308594 10.707031 14.34375 10.738281 14.363281 C 11.011719 14.515625 11.417969 14.808594 11.433594 14.71875 C 11.507812 14.804688 11.5625 14.878906 11.597656 14.921875 C 11.648438 14.984375 11.683594 15.042969 11.714844 15.089844 C 11.800781 15.347656 11.917969 15.765625 12.011719 15.949219 C 12.144531 16.210938 11.894531 16.210938 11.695312 16.113281 Z M 22.949219 8.089844 C 22.730469 7.859375 22.414062 7.609375 22.089844 7.410156 C 21.773438 7.21875 21.3125 6.988281 20.898438 6.988281 C 20.640625 6.988281 20.511719 6.96875 20.449219 6.953125 C 20.511719 6.898438 20.628906 6.832031 20.683594 6.796875 C 20.722656 6.773438 20.753906 6.753906 20.78125 6.734375 C 21.035156 6.570312 21.617188 6.410156 21.746094 6.5 C 21.890625 6.597656 22.761719 7.351562 23.253906 7.828125 C 23.15625 7.917969 23.042969 8.011719 22.949219 8.089844 Z M 25.269531 21.453125 C 23.65625 21.453125 22.347656 20.15625 22.347656 18.566406 C 22.347656 17.566406 22.863281 16.683594 23.648438 16.164062 L 24.507812 18.082031 C 24.417969 18.222656 24.363281 18.386719 24.363281 18.566406 C 24.363281 19.058594 24.769531 19.457031 25.269531 19.457031 C 25.769531 19.457031 26.171875 19.058594 26.171875 18.566406 C 26.171875 18.070312 25.769531 17.671875 25.269531 17.671875 C 25.238281 17.671875 25.210938 17.675781 25.183594 17.675781 L 24.351562 15.824219 C 24.640625 15.730469 24.949219 15.675781 25.269531 15.675781 C 26.878906 15.675781 28.191406 16.972656 28.191406 18.566406 C 28.191406 20.15625 26.878906 21.453125 25.269531 21.453125 Z M 25.269531 21.453125 " fill-opacity="1" fill-rule="nonzero"/></g></svg>